<svg
  width="20"
  height="15"
  viewBox="0 0 20 15"
  fill="none"
  xmlns="http://www.w3.org/2000/svg"
  >
   <path
    d="M21 2.47506C21 2.76498 20.765 3 20.4751 3H2.42519C1.63808 3 1 2.36192 1 1.57481C1 0.731642 1.72801 0.0728011 2.567 0.1567L20.5273 1.95273C20.7956 1.97956 21 2.20537 21 2.47506Z"
    fill="#007CF8"
   />
    <path
      d="M21 10.4751C21 10.765 20.765 11 20.4751 11H2.42519C1.63808 11 1 10.3619 1 9.57481C1 8.73164 1.72801 8.0728 2.567 8.1567L20.5273 9.95273C20.7956 9.97956 21 10.2054 21 10.4751Z"
      fill="#007CF8"
       />
        <path
          d="M1 4.52494C1 4.23502 1.23502 4 1.52494 4H19.5748C20.3619 4 21 4.63808 21 5.42519C21 6.26836 20.272 6.9272 19.433 6.8433L1.4727 5.04727C1.20436 5.02044 1 4.79463 1 4.52494Z"
          fill="#007CF8"
        />
      <path
        d="M1 12.5249C1 12.235 1.23502 12 1.52494 12H19.5748C20.3619 12 21 12.6381 21 13.4252C21 14.2684 20.272 14.9272 19.433 14.8433L1.4727 13.0473C1.20436 13.0204 1 12.7946 1 12.5249Z"
        fill="#007CF8"
      />
</svg>