   <svg
                width="20"
                height="15"
                viewBox="0 0 20 15"
                fill="none"
                xmlns="https://www.w3.org/2000/svg"
              >
                <path
                  d="M0 0.524938C0 0.235023 0.235023 0 0.524938 0H18.5748C19.3619 0 20 0.638078 20 1.42519C20 2.26836 19.272 2.9272 18.433 2.8433L0.472704 1.04727C0.204355 1.02044 0 0.794625 0 0.524938Z"
                  fill={"#F9F9F9"}
                />
                <path
                  d="M0 8.52494C0 8.23502 0.235023 8 0.524938 8H18.5748C19.3619 8 20 8.63808 20 9.42519C20 10.2684 19.272 10.9272 18.433 10.8433L0.472704 9.04727C0.204355 9.02044 0 8.79463 0 8.52494Z"
                  fill={"#F9F9F9"}
                />
                <path
                  d="M20 6.47506C20 6.76498 19.765 7 19.4751 7H1.42519C0.638077 7 0 6.36192 0 5.57481C0 4.73164 0.72801 4.0728 1.567 4.1567L19.5273 5.95273C19.7956 5.97956 20 6.20537 20 6.47506Z"
                  fill={"#F9F9F9"}
                />
                <path
                  d="M20 14.4751C20 14.765 19.765 15 19.4751 15H1.42519C0.638077 15 0 14.3619 0 13.5748C0 12.7316 0.72801 12.0728 1.567 12.1567L19.5273 13.9527C19.7956 13.9796 20 14.2054 20 14.4751Z"
                  fill={"#F9F9F9"}
                />
              </svg>