<svg width="55" height="59" viewBox="0 0 55 59" fill="none" xmlns="http://www.w3.org/2000/svg">
<g clip-path="url(#clip0_2001_1465)">
<path fill-rule="evenodd" clip-rule="evenodd" d="M13.2814 28.1357C13.385 28.2161 13.4723 28.3159 13.5433 28.4351C14.7254 30.5424 15.2118 32.7873 15.0025 35.1698C15.0149 34.5457 15.0025 33.9221 14.9651 33.299C14.9401 33.4237 14.9152 33.5484 14.8902 33.6732C14.8653 33.4487 14.8403 33.2242 14.8154 32.9997C14.7905 33.1743 14.7655 33.3489 14.7406 33.5235C14.7194 33.2809 14.657 33.2559 14.5535 33.4487C14.4538 33.2491 14.3539 33.2491 14.2542 33.4487C14.1763 33.2623 14.1139 33.2623 14.0671 33.4487C14.0245 33.1597 13.9622 33.1597 13.88 33.4487C13.7959 33.058 13.7335 33.058 13.693 33.4487C13.6267 33.1904 13.5427 32.9997 13.5072 32.7004C13.3963 31.765 13.3599 31.7372 13.2453 31.2786C13.1324 30.851 12.9703 30.5267 12.7589 30.1562C12.6453 29.9571 12.5652 29.7932 12.4596 29.6323C12.196 29.2041 11.9702 28.7801 11.71 28.3602C11.8946 28.4003 12.0691 28.4378 12.2338 28.4725C12.0419 28.5833 12.0419 28.6955 12.2338 28.8092C12.3786 28.6238 12.5283 28.6238 12.6828 28.8092C12.6569 28.8987 12.6194 28.8987 12.5705 28.8092C12.5243 28.8802 12.5368 28.9426 12.6079 28.9963C12.5082 29.0462 12.4333 29.121 12.3834 29.2208C12.461 29.3418 12.5483 29.3543 12.6453 29.2582C12.7202 29.4578 12.795 29.4578 12.8698 29.2582C12.8428 29.6548 12.9551 29.7171 13.2066 29.4453C12.9812 29.1186 13.0809 28.9689 13.5059 28.9963C13.5717 28.8948 13.5967 28.7826 13.5807 28.6596C13.1443 28.6506 13.0445 28.4759 13.2814 28.1357Z" fill="#007CF8"/>
<path d="M30.1934 0C30.0742 1.72483 30.5604 3.24617 31.6523 4.56445C34.7761 7.73819 38.5552 9.1603 42.9893 8.83008C44.4047 8.72023 45.6036 8.19654 46.6572 7.25879C46.879 7.01684 47.0243 6.84007 47.1523 6.68164L47.2061 6.61523C47.2946 6.50536 47.3784 6.40109 47.4785 6.28613C47.8721 6.62655 48.2635 6.97058 48.6387 7.33301L48.6768 7.37109C46.792 9.48756 46.2545 12.0191 47.1416 14.7412C47.4346 15.6835 47.8215 16.582 48.3018 17.4355H46.7314C46.6566 17.3233 46.5816 17.2111 46.5068 17.0615C45.6252 15.2976 45.1627 13.4267 45.1963 11.4492C44.2003 12.4703 43.2277 13.5179 42.2783 14.5918C41.6168 15.3401 41.6879 16.4387 41.792 17.4355H40.3701C40.3543 17.3538 40.3451 17.2862 40.3369 17.2236C40.3263 17.1431 40.3167 17.0706 40.2949 16.9863C40.2423 17.0395 40.1881 17.0925 40.1338 17.1455C40.0354 17.2416 39.9368 17.3383 39.8477 17.4355H37.9014C38.1684 17.0888 38.4276 16.6985 38.6797 16.3193C38.7826 16.1646 38.8848 16.0118 38.9854 15.8643C35.629 15.8642 32.7351 14.6417 30.3047 12.1973C30.2548 13.569 30.2548 14.9408 30.3047 16.3125V16.6123C30.3047 16.7172 30.2851 17.1569 30.2656 17.5771C30.2481 17.9558 30.231 18.3196 30.2305 18.4082C30.2056 22.4241 30.1953 26.3775 30.1953 30.4932C30.1941 31.6124 30.1941 32.2943 30.1953 33.2998C30.1952 33.5239 30.1625 33.7476 30.1299 33.9707C30.1116 34.096 30.0936 34.2214 30.0811 34.3467C29.9526 34.268 29.8777 34.3185 29.8564 34.4971L29.8398 34.4639L29.8184 34.4219L29.7812 34.3467C29.5747 34.5115 29.3499 34.5368 29.1074 34.4219C28.9828 34.6371 28.7962 34.699 28.5469 34.6084C28.9454 34.4506 28.97 34.3259 28.6211 34.2344C28.6954 34.0807 28.6336 33.9936 28.4346 33.9727L28.3984 33.9844L28.3799 33.9912L28.3223 34.0098C28.4528 34.1363 28.4781 34.2741 28.3975 34.4219C28.1645 34.2644 27.9893 34.0649 27.873 33.8232C27.4072 33.7992 27.3323 33.637 27.6484 33.3369C27.6016 33.2808 27.5641 33.2179 27.5361 33.1494C27.4846 33.2135 27.4228 33.2641 27.3496 33.2998C27.1191 33.1611 26.8826 33.1354 26.6406 33.2236C26.6828 33.2613 26.8044 33.3743 26.9248 33.4863C27.0445 33.5976 27.1639 33.7092 27.2041 33.7451C27.0604 33.8657 26.5035 33.5488 26.0654 33.2998C25.838 33.1705 25.6426 33.0593 25.5537 33.0371C25.643 33.086 25.6429 33.1235 25.5537 33.1494C25.4459 33.0893 25.3334 33.0396 25.2168 33C24.9806 33.1053 24.7435 33.1802 24.5059 33.2246C24.0426 33.3565 23.6182 33.5682 23.2334 33.8604C22.4394 34.38 21.6665 34.9292 20.9141 35.5068C21.4106 35.6557 21.8847 35.8431 22.3359 36.0684C22.4164 36.1834 22.4164 36.2953 22.3359 36.4043C22.4192 36.5083 22.5186 36.5967 22.6348 36.667C22.3995 36.7261 22.1622 36.776 21.9238 36.8164C21.8365 36.7409 21.7492 36.6658 21.6621 36.5918C21.6017 36.615 21.5519 36.6525 21.5127 36.7041C21.6467 36.7355 21.746 36.8105 21.8115 36.9287C21.6894 36.9689 21.5898 36.9314 21.5127 36.8164C21.4754 36.8987 21.4501 36.9737 21.4375 37.041C21.2162 36.9901 21.1916 36.9268 21.3633 36.8535C21.1664 36.8199 20.9789 36.7582 20.8018 36.667C20.7177 36.7866 20.6052 36.8617 20.4648 36.8916C19.8541 36.7592 19.2554 36.7957 18.6689 37.0029C17.493 37.6053 16.4204 38.3538 15.4512 39.248C18.6721 39.9836 21.1912 41.718 23.0088 44.4492C23.0232 44.6712 22.9489 44.858 22.7852 45.0098C22.5548 45.0614 22.3421 45.0989 22.1484 45.1221C21.9753 45.0465 21.8131 44.9091 21.6621 44.7109C21.6868 44.6987 21.7117 44.6862 21.7363 44.6738L21.7607 44.6611L21.7832 44.6504L21.8115 44.6357C21.6542 44.5467 21.5293 44.4217 21.4375 44.2617C21.4035 44.2571 21.3793 44.2946 21.3535 44.335C21.3048 44.4113 21.2489 44.4987 21.1025 44.3369C19.6008 42.6757 17.8158 41.4912 15.6758 40.8574C15.707 40.8036 15.7569 40.7661 15.8252 40.7451C15.5438 40.603 15.2448 40.5022 14.9277 40.4453C14.9642 40.4333 15.0007 40.4214 15.0371 40.4092C15.073 40.3971 15.1164 40.3829 15.1523 40.3711C14.8613 40.1361 14.5869 39.8862 14.3291 39.6221C14.3531 39.6102 14.3774 39.598 14.4014 39.5859L14.4414 39.5664L14.4785 39.5479C14.0288 39.4132 13.8545 39.1258 13.9551 38.6875C13.9225 38.52 13.8718 38.3575 13.8047 38.2012C13.8378 38.065 13.8632 37.9268 13.8799 37.7891C14.1472 37.7532 14.2098 37.6289 14.0674 37.415L14.042 37.4395L14.0303 37.4521L13.9922 37.4902C13.9548 37.1917 13.9427 36.8919 13.9551 36.5918H13.6553C13.6785 36.2777 13.6287 35.9786 13.5059 35.6943V32.7012C13.5643 32.9415 13.6272 33.1911 13.6934 33.4492C13.7339 33.0585 13.7958 33.0585 13.8799 33.4492C13.962 33.1603 14.0248 33.1603 14.0674 33.4492C14.1142 33.2628 14.176 33.2628 14.2539 33.4492C14.3537 33.2496 14.454 33.2496 14.5537 33.4492C14.6571 33.2566 14.719 33.2812 14.7402 33.5234L14.7773 33.2646L14.8154 33L14.8525 33.3369L14.8906 33.6738L14.9258 33.4951L14.9463 33.3936L14.9648 33.2998C15.0022 33.9227 15.0144 34.546 15.002 35.1699C14.977 36.0056 14.828 36.816 14.5537 37.6016C15.9211 37.0097 17.1561 36.1995 18.2578 35.1699C19.2188 33.522 19.3678 31.8009 18.7061 30.0068C18.2197 29.0217 17.4842 28.2862 16.499 27.7998C15.2424 27.4838 13.9702 27.2833 12.6826 27.2002L12.7412 27.2764C12.9522 27.5492 13.175 27.8374 13.3574 28.1357C13.5659 28.477 13.5185 28.5953 13.4775 28.6299C13.5029 28.625 13.5471 28.6206 13.6191 28.6221C13.6352 28.7451 13.5717 28.8956 13.5059 28.9971C13.0811 28.9697 12.981 29.1189 13.2061 29.4453C12.9547 29.717 12.8432 29.6551 12.8701 29.2588C12.7953 29.4581 12.7203 29.458 12.6455 29.2588C12.5485 29.3548 12.4613 29.3417 12.3838 29.2207C12.4336 29.1214 12.5081 29.0469 12.6074 28.9971C12.5363 28.9434 12.5242 28.8805 12.5703 28.8096C12.6192 28.899 12.6567 28.899 12.6826 28.8096C12.5282 28.6242 12.3783 28.6241 12.2334 28.8096C12.0418 28.696 12.0418 28.5834 12.2334 28.4727C12.0689 28.438 11.8944 28.4004 11.71 28.3604C11.6985 28.3487 11.6884 28.3383 11.6797 28.3291L11.6611 28.3096C11.6513 28.2991 11.6427 28.2902 11.6348 28.2822C11.63 28.2774 11.6259 28.2729 11.6211 28.2686C11.6156 28.2637 11.6088 28.2582 11.6016 28.251L11.5439 28.1807L11.4854 28.1094C11.4542 28.0683 11.4923 28.0659 11.5381 28.0625C11.5792 28.0595 11.6262 28.0553 11.6348 28.0234C11.5505 27.9137 11.5007 27.7888 11.4854 27.6494C11.5635 27.4963 11.5635 27.3463 11.4854 27.2002C11.5616 26.985 11.6994 26.8227 11.8975 26.7139C11.951 26.5935 11.938 26.4816 11.8594 26.3779C12.0062 26.1656 12.0314 25.9407 11.9346 25.7041C11.9939 25.4608 12.0932 25.236 12.2334 25.0303C12.1925 24.9612 12.1427 24.8992 12.084 24.8438C12.0149 24.9288 11.9528 24.9287 11.8975 24.8438C11.8701 24.6978 11.8072 24.5731 11.71 24.4697C12.2898 24.1665 12.8388 23.8049 13.3564 23.3848C14.7598 22.0439 15.7078 20.4344 16.2002 18.5576C16.3317 18.2309 16.4189 17.8812 16.4619 17.5098C16.6893 16.128 16.3895 14.8808 15.5635 13.7686C14.8678 12.948 14.1445 12.1498 13.3936 11.374C13.0585 16.3095 11.0004 20.3509 7.21973 23.4971C7.14461 23.4086 7.08274 23.3083 7.0332 23.1973C7.01509 23.3198 6.95234 23.4323 6.8457 23.5342C6.68066 23.6604 6.54357 23.6481 6.43457 23.4971C6.41144 23.5916 6.3739 23.6791 6.32227 23.7588L6.39746 23.7959L6.47168 23.833L6.17285 23.9834C6.21678 24.2333 6.16614 24.2335 6.02246 23.9834C5.92581 23.9468 5.82625 23.9336 5.72363 23.9453V23.6465C5.54381 23.6738 5.36933 23.7236 5.2002 23.7959C5.07239 23.7807 4.97215 23.7179 4.90039 23.6084C5.07608 23.4536 5.23832 23.2913 5.38672 23.1221L5.42383 23.2344L5.46191 23.3467C5.56623 23.2241 5.67882 23.1115 5.79883 23.0098C5.69983 22.9487 5.64926 22.8616 5.64844 22.748C9.0337 20.2203 11.0422 16.8533 11.6729 12.6465C11.9875 10.5857 11.4506 8.78979 10.0635 7.25879C10.3867 6.89149 10.7485 6.56721 11.1484 6.28613C11.4826 6.69515 11.8444 7.08139 12.2334 7.44531C14.0464 8.73133 16.0672 9.23069 18.2949 8.94238C19.0175 8.91477 19.7163 8.80235 20.3906 8.60547C21.4129 8.43102 22.3856 8.10686 23.3086 7.63281C25.0139 6.83887 26.4735 5.71658 27.6865 4.26562C28.5972 2.99292 28.9832 1.57083 28.8457 0H30.1934ZM19.5 28C21.1563 29.8441 21.043 30.6871 21 33.5C21 33.5 24.9999 31.5 24.501 30C24.001 28.4999 19.5 28 19.5 28ZM26 32L27 33L28.5 31L26 32ZM25.5 31L27.5 29.5L25 29L25.5 31ZM25 28H27.5L26 26L25 28ZM22.5 21.5C22.0611 24.3684 21.6643 25.7094 19 26.5C19 26.5 23.5 28 24.5 26.5C25.5 25 22.5 21.5 22.5 21.5ZM27.5 24L29 26V23.5L27.5 24ZM18.5 16.5C17.468 21.477 16.7873 23.2344 13 25.5C13 25.5 18.5 27 20.5 24C22.5 21 18.5 16.5 18.5 16.5ZM29 17.5C27.9072 19.2282 26.2942 20.0964 24 20C24 20 27.2879 23.6893 28.5 22.5C29.7121 21.3107 29 17.5 29 17.5ZM28.5 11.5C25.4998 14.4998 24.9999 15.5 19.5 15C19.5 15 23.5 19.9995 26.5 18.5C29.5 17 28.5 11.5 28.5 11.5ZM30.5 5C30.5 5 29.8593 10.7416 34 13C39.5002 15.9997 44 10.5 44 10.5C37.8526 10.2997 34.8277 9.2253 30.5 5ZM28.5 5C24.836 9.10517 22.434 9.9866 15 10C15 10 20.9222 15.0283 24.5 13.5C27.954 12.0246 28.5 5 28.5 5Z" fill="#007CF8"/>
<path d="M5.64844 22.748C5.64926 22.8615 5.69899 22.9487 5.79785 23.0098C5.67775 23.1115 5.56532 23.224 5.46094 23.3467C5.43603 23.2719 5.41162 23.1969 5.38672 23.1221C5.23834 23.2913 5.07606 23.4536 4.90039 23.6084C4.97213 23.7179 5.07148 23.7807 5.19922 23.7959C5.36848 23.7235 5.54367 23.6739 5.72363 23.6465V23.9453C5.82617 23.9337 5.92589 23.9459 6.02246 23.9824C6.16628 24.2328 6.21595 24.2328 6.17188 23.9824C6.27162 23.9325 6.37193 23.8829 6.47168 23.833C6.42183 23.8081 6.37212 23.7827 6.32227 23.7578C6.3738 23.6781 6.41052 23.5906 6.43359 23.4961C6.54266 23.6475 6.68048 23.6606 6.8457 23.5342C6.95225 23.4323 7.01406 23.3197 7.03223 23.1973C7.08173 23.3082 7.14467 23.4076 7.21973 23.4961C6.82814 23.8674 6.40373 24.2047 5.94727 24.5068C6.72161 24.6234 7.49541 24.748 8.26758 24.8809C8.97894 24.9425 9.67727 24.9304 10.3623 24.8438C10.8289 24.7796 11.2786 24.6541 11.71 24.4688C11.8073 24.5722 11.8691 24.6977 11.8965 24.8438C11.9519 24.9288 12.0149 24.9289 12.084 24.8438C12.1427 24.8992 12.1926 24.9612 12.2334 25.0303C12.0932 25.236 11.9929 25.4608 11.9336 25.7041C12.0304 25.9406 12.006 26.1647 11.8594 26.377C11.9382 26.4808 11.9503 26.5933 11.8965 26.7139C11.6985 26.8227 11.5615 26.985 11.4854 27.2002C11.5635 27.3463 11.5635 27.4963 11.4854 27.6494C11.5008 27.7889 11.5504 27.9136 11.6348 28.0234C11.6166 28.0909 11.8602 28.2484 11.5596 28.2109C11.299 27.8742 11.0527 27.6867 10.7363 27.4248C10.2142 26.9927 9.6154 26.718 8.94043 26.6016C7.76965 26.4105 6.59745 26.2605 5.42383 26.1523C5.8889 26.6922 6.3255 27.2543 6.7334 27.8369C8.15415 30.3162 8.91498 32.9854 9.01562 35.8438C9.13797 37.9738 8.87652 40.0433 8.23047 42.0537C9.35946 41.346 10.4691 40.6105 11.5596 39.8467C12.6459 38.9487 12.9106 38.2449 13.1699 37.2646C13.3512 36.7253 13.4694 36.2545 13.5068 35.6934C13.5817 35.2825 13.6785 36.2776 13.6553 36.5918H13.9541C13.9417 36.8917 13.9549 37.1908 13.9922 37.4893C14.0169 37.4648 14.0417 37.4395 14.0664 37.415C14.2089 37.629 14.147 37.7531 13.8799 37.7891C13.8632 37.9266 13.8378 38.0641 13.8047 38.2002C13.8718 38.3565 13.9215 38.519 13.9541 38.6865C13.8534 39.125 14.0286 39.4132 14.4785 39.5479C14.4288 39.5725 14.3789 39.5974 14.3291 39.6221C14.5867 39.886 14.8606 40.1353 15.1514 40.3701C15.0768 40.3947 15.0023 40.4207 14.9277 40.4453C15.2447 40.5022 15.5438 40.603 15.8252 40.7451C15.7569 40.766 15.7071 40.8028 15.6758 40.8564C14.4451 40.5437 13.2721 40.6811 12.1582 41.2686C11.2642 41.8881 10.3909 42.5367 9.53906 43.2139C14.4263 44.236 18.1811 46.867 20.8018 51.1084C21.1669 51.7886 21.4911 52.488 21.7744 53.2041C22.0889 52.1356 22.3878 51.063 22.6719 49.9863C22.7967 49.2531 22.8099 48.5302 22.71 47.8164C22.5095 46.5174 21.9848 45.37 21.1377 44.374C21.1018 44.3367 21.1377 44.3235 21.1377 44.2988C21.2385 44.2592 21.3388 44.2475 21.4375 44.2617C21.5294 44.4218 21.6541 44.5467 21.8115 44.6357C21.7616 44.6604 21.712 44.6863 21.6621 44.7109C21.8131 44.9091 21.9753 45.0465 22.1484 45.1221C22.342 45.0989 22.5539 45.0614 22.7842 45.0098C22.9483 44.8579 23.0232 44.6705 23.0088 44.4482C23.325 44.9548 23.6248 45.4795 23.9072 46.0205C24.3212 44.8906 24.6828 43.7432 24.9922 42.5781C25.1809 41.8672 25.1133 41.5674 24.9922 41.0811C24.9044 40.7287 24.7666 40.4047 24.5801 40.1084C24.272 39.3767 23.7979 38.7779 23.1582 38.3125C22.3875 37.6033 21.4898 37.1286 20.4648 36.8906C20.6052 36.8607 20.7178 36.7857 20.8018 36.666C20.9788 36.7572 21.1655 36.8198 21.3623 36.8535C21.1909 36.9268 21.2161 36.9902 21.4375 37.041C21.4501 36.9737 21.4755 36.8987 21.5127 36.8164C21.5898 36.9313 21.6894 36.969 21.8115 36.9287C21.746 36.8106 21.6465 36.7356 21.5127 36.7041C21.552 36.6525 21.6017 36.615 21.6621 36.5918C21.7492 36.6658 21.8365 36.7409 21.9238 36.8164C22.1623 36.776 22.3994 36.7251 22.6348 36.666C22.5186 36.5957 22.4182 36.5083 22.335 36.4043C22.4158 36.295 22.4158 36.1826 22.335 36.0674C23.7931 36.7738 24.9913 37.7963 25.9277 39.1357C26.326 38.0283 26.6877 36.9059 27.0127 35.7686C27.1903 34.4409 26.6289 33.6053 25.3291 33.2617C25.0559 33.2244 24.7813 33.2123 24.5059 33.2246C24.7434 33.1802 24.9806 33.1052 25.2168 33C25.3332 33.0395 25.4451 33.0894 25.5527 33.1494C25.6422 33.1235 25.6422 33.086 25.5527 33.0371C25.8133 33.1021 26.0503 33.0393 26.2637 32.8496C26.3868 32.9727 26.5114 33.0983 26.6377 33.2246C26.8803 33.1355 27.1175 33.1599 27.3486 33.2988C27.4218 33.2631 27.4846 33.2135 27.5361 33.1494C27.5641 33.218 27.6016 33.2808 27.6484 33.3369C27.3323 33.6371 27.4071 33.7992 27.873 33.8232C27.9893 34.0647 28.1637 34.2645 28.3965 34.4219C28.4771 34.2741 28.4527 34.1363 28.3223 34.0098C28.3594 33.9974 28.3965 33.9851 28.4336 33.9727C28.6328 33.9935 28.6955 34.0806 28.6211 34.2344C28.9701 34.3259 28.9447 34.4505 28.5459 34.6084C28.7953 34.699 28.9828 34.637 29.1074 34.4219C29.3499 34.5368 29.5747 34.5115 29.7812 34.3467C29.8061 34.3964 29.8306 34.4463 29.8555 34.4961C29.8767 34.3174 29.9159 33.5957 30.0439 33.6729C29.8943 33.2243 29.7455 33.2246 30.1943 33.2246V35.3193C29.5957 35.3193 28.9962 35.2071 28.6582 35.918C28.1286 37.2649 27.7052 38.6371 27.3867 40.0342C27.6053 39.8688 27.8423 39.7306 28.0977 39.6221C29.2331 39.1874 30.4053 39.0374 31.6143 39.1729C32.4604 39.2686 33.2464 39.531 33.9717 39.959C33.7287 39.1187 33.3805 38.2209 33 37.415H34.7588C35.037 37.9717 35.2722 38.6199 35.4678 39.2109C35.785 38.6071 36.1487 37.959 36.5547 37.415H38.7979C38.6496 37.5646 38.5369 37.6763 38.3486 37.8633C36.9941 39.0523 36.4086 40.5494 36.5908 42.3535C36.9302 43.571 37.3293 44.7683 37.7881 45.9453C38.7823 43.7162 40.2915 41.9327 42.3154 40.5947C43.0294 40.2073 43.7774 39.9082 44.5596 39.6973C43.9704 39.1952 43.3639 38.6866 42.8027 38.2002C42.5409 37.9732 42.1694 37.6649 41.8672 37.415H44.1855C44.3271 37.5048 44.4649 37.6039 44.5977 37.7139V37.415H45.6836C45.7443 37.5976 45.8184 37.8476 45.9072 38.0137C46.1901 38.7842 46.6642 39.4206 47.3291 39.9219C48.2393 40.6325 49.1494 41.3431 50.0596 42.0537C49.8566 41.2435 49.6823 40.4206 49.5361 39.585C49.4491 38.9386 49.3863 38.2898 49.3486 37.6396V37.415H50.8457C50.9082 39.0365 51.2201 40.6077 51.7812 42.1289C52.4899 43.535 53.5759 44.707 54.8877 45.5713C54.9511 45.6131 55 45.6465 55 45.6465C54.8146 45.9158 54.5139 46.2649 54.3252 46.5439C54.2457 46.6487 54.2145 46.7315 54.1396 46.8438C54.1022 46.7689 50.3763 45.4133 48.376 46.0576C46.3027 46.9967 44.6313 48.4055 43.3623 50.2852C42.4332 51.4862 41.7971 52.8333 41.4541 54.3262C41.3409 54.9959 41.3908 55.6695 41.4541 56.3467C41.5617 56.9468 41.638 57.5455 41.7549 58.1426C41.3278 58.2518 40.7539 58.4511 40.333 58.5918C40.2957 58.4425 40.3175 58.5164 40.2949 58.4424C39.9352 57.2631 39.286 56.2897 38.3486 55.5234C37.8833 55.0656 37.3594 54.6783 36.7773 54.3633C34.6366 53.3293 32.3917 52.9179 30.043 53.1289C27.2037 53.2135 24.6943 54.0643 22.8223 56.2715C22.3146 56.9622 21.8663 57.823 21.5508 58.6289C21.5136 58.6189 21.5011 58.6068 21.4375 58.5918C21.0568 58.502 20.5344 58.3524 20.167 58.2178C20.2044 58.1429 20.2041 58.1422 20.2402 58.0674C20.7354 56.541 20.7355 55.0189 20.2402 53.5029C19.4206 51.4475 18.1736 49.6889 16.499 48.2275C14.7027 46.5805 12.607 45.4841 10.2129 44.9355C8.1 44.5599 6.1917 45.021 4.48828 46.3193C4.18738 45.9812 3.90056 45.6314 3.62793 45.2715C5.05441 44.3811 6.08973 43.1595 6.7334 41.6055C7.88782 38.1986 7.87553 34.8059 6.69629 31.4287C6.56871 30.8953 6.36912 30.3959 6.09766 29.9316C5.00042 27.212 2.89367 25.5533 0 25.0303C0.0373891 24.9181 0.037789 24.8808 0.0751953 24.7686C0.194767 24.4722 0.30525 24.1723 0.410156 23.8701C0.447782 23.7611 0.484378 23.6875 0.486328 23.6836C0.486328 23.6836 0.834457 23.7959 0.859375 23.7959C1.21431 23.908 1.58837 23.9577 1.98145 23.9453C3.32412 23.9051 4.54664 23.5061 5.64844 22.748ZM31 46C25 46 23.5 53 23.5 53C30.1274 50.2717 33.3518 50.5007 38.5 53C38.5 53 37 46 31 46ZM50.502 44C50.502 44 45.9999 39.0003 41.502 43C37.0043 46.9997 40.502 52.5 40.502 52.5C43.0562 46.8623 44.3194 45.0317 50.502 44ZM31 40.5C27 40.5 25.5 46.5 25.5 46.5C29.6264 44.2366 32.0494 44.3434 36.5 46.5C36.5 46.5 35 40.5 31 40.5Z" fill="#007CF8"/>
</g>
<defs>
<clipPath id="clip0_2001_1465">
<rect width="55" height="58.6289" fill="white"/>
</clipPath>
</defs>
</svg>
