<svg width="38" height="40" viewBox="0 0 38 40" fill="none" xmlns="http://www.w3.org/2000/svg">
<path d="M20.6045 0C20.5232 1.17628 20.8552 2.21512 21.5996 3.11426C23.7303 5.27882 26.3108 6.24915 29.335 6.02441C30.2997 5.94932 31.1186 5.59108 31.8369 4.95215C31.9876 4.78778 32.0877 4.66635 32.1748 4.55859L32.2119 4.51367C32.272 4.4391 32.3296 4.36609 32.3975 4.28809C32.6655 4.51993 32.9339 4.75613 33.1895 5.00293L33.2158 5.0293C31.9306 6.47304 31.563 8.2009 32.168 10.0576C32.3677 10.7001 32.6316 11.3135 32.959 11.8955H31.8877C31.837 11.8195 31.786 11.7418 31.7354 11.6406C31.1341 10.4374 30.818 9.16033 30.8408 7.81152C30.1618 8.5077 29.4969 9.22292 28.8496 9.95508C28.3992 10.4655 28.4466 11.2159 28.5176 11.8955H27.5479C27.5371 11.8399 27.531 11.7935 27.5254 11.751C27.5182 11.6962 27.5109 11.6461 27.4961 11.5889C27.4606 11.6247 27.4233 11.6625 27.3867 11.6982C27.3201 11.7633 27.2518 11.8297 27.1914 11.8955H25.8633C26.0451 11.6594 26.2229 11.3929 26.3945 11.1348C26.4645 11.0296 26.5351 10.9236 26.6035 10.8232C24.3146 10.8228 22.3383 9.98917 20.6807 8.32227C20.6466 9.25803 20.6466 10.1941 20.6807 11.1299V11.334C20.6807 11.4055 20.6666 11.7054 20.6533 11.9922C20.6413 12.2506 20.6303 12.4991 20.6299 12.5596C20.6129 15.2994 20.6064 17.9968 20.6064 20.8047C20.6056 21.5681 20.6056 22.033 20.6064 22.7188C20.6064 22.8717 20.5838 23.0245 20.5615 23.1768C20.549 23.2622 20.5359 23.3481 20.5273 23.4336C20.4408 23.3814 20.3894 23.4152 20.375 23.5361L20.3633 23.5137L20.3232 23.4336C20.1829 23.545 20.0289 23.5621 19.8643 23.4844C19.7794 23.6304 19.6508 23.6735 19.4814 23.6123C19.752 23.505 19.7689 23.4197 19.5322 23.3574C19.5826 23.253 19.5393 23.1931 19.4043 23.1787L19.3799 23.1865L19.3672 23.1914L19.3281 23.2041C19.4164 23.2901 19.4333 23.3841 19.3789 23.4844C19.2209 23.3772 19.1006 23.2403 19.0215 23.0762C18.7058 23.0594 18.6539 22.948 18.8682 22.7441C18.8369 22.7064 18.8108 22.6632 18.792 22.6172C18.7572 22.6602 18.7133 22.6946 18.6641 22.7188C18.5076 22.6252 18.3449 22.6074 18.1807 22.667C18.2098 22.6931 18.2927 22.771 18.374 22.8467C18.4546 22.9216 18.537 22.998 18.5654 23.0234C18.4658 23.1031 18.0858 22.8889 17.7881 22.7197C17.6342 22.6323 17.4993 22.5556 17.4385 22.54C17.4985 22.5731 17.4984 22.5996 17.4385 22.6172C17.3657 22.5767 17.2877 22.5414 17.209 22.5146C17.0488 22.5859 16.8857 22.6378 16.7246 22.668C16.4096 22.7579 16.1182 22.903 15.8564 23.1016C15.3154 23.4557 14.7862 23.8319 14.2734 24.2256C14.6113 24.327 14.9361 24.4552 15.2432 24.6084C15.2978 24.6867 15.2978 24.7637 15.2432 24.8379C15.2996 24.9082 15.3697 24.9689 15.4482 25.0166C15.2886 25.0566 15.1246 25.0907 14.9629 25.1182C14.9039 25.0672 14.843 25.0158 14.7842 24.9658C14.7439 24.9816 14.708 25.0075 14.6816 25.042C14.7723 25.0635 14.8412 25.1154 14.8857 25.1953C14.8034 25.2217 14.7338 25.1957 14.6816 25.1182C14.6565 25.1739 14.6395 25.2258 14.6309 25.2715C14.4822 25.237 14.4652 25.194 14.5801 25.1445C14.4468 25.1215 14.3173 25.0783 14.1973 25.0166C14.1402 25.0975 14.0619 25.1494 13.9668 25.1699C13.5512 25.0802 13.1413 25.1053 12.7422 25.2461C11.9408 25.6568 11.2075 26.168 10.5469 26.7773C12.7436 27.2793 14.4633 28.4635 15.7031 30.3262C15.7129 30.4775 15.6614 30.6055 15.5498 30.709C15.3938 30.7439 15.2475 30.7694 15.1162 30.7852C14.9988 30.7335 14.8867 30.6393 14.7842 30.5049C14.8003 30.4969 14.8188 30.4876 14.835 30.4795L14.8516 30.4707L14.8662 30.4639L14.8857 30.4541C14.7792 30.3935 14.6932 30.3067 14.6309 30.1982C14.6086 30.1966 14.5903 30.2214 14.5732 30.248C14.5402 30.2998 14.5015 30.3584 14.4023 30.249C13.3782 29.1165 12.1593 28.3074 10.7002 27.875C10.7213 27.8392 10.7563 27.8131 10.8018 27.7988C10.6105 27.7024 10.4048 27.6335 10.1895 27.5947C10.2136 27.5868 10.2405 27.5774 10.2646 27.5693C10.2883 27.5614 10.319 27.5518 10.3428 27.5439C10.1449 27.3841 9.95658 27.2128 9.78125 27.0332L9.88281 26.9824C9.57732 26.8903 9.45701 26.6929 9.52539 26.3945C9.50324 26.2807 9.46939 26.1697 9.42383 26.0635C9.4464 25.9707 9.46323 25.876 9.47461 25.7822C9.65577 25.7576 9.69891 25.6725 9.60254 25.5273L9.58496 25.5439L9.57715 25.5527L9.56934 25.5605L9.55078 25.5781C9.52535 25.3747 9.51695 25.1703 9.52539 24.9658H9.32129C9.33709 24.7516 9.30251 24.5464 9.21875 24.3525V22.3105C9.25862 22.4744 9.30156 22.6453 9.34668 22.8213C9.37434 22.555 9.41727 22.5552 9.47461 22.8213C9.5306 22.6245 9.5735 22.6245 9.60254 22.8213C9.63443 22.6946 9.67651 22.6949 9.72949 22.8213C9.79735 22.6858 9.86574 22.6861 9.93359 22.8213C10.004 22.6903 10.0471 22.707 10.0615 22.8721L10.0869 22.6953L10.1123 22.5146L10.1387 22.7441L10.1641 22.9746L10.1885 22.8525L10.2021 22.7832L10.2148 22.7188C10.2404 23.1438 10.2487 23.5694 10.2402 23.9951C10.2232 24.5652 10.1207 25.1184 9.93359 25.6543C10.8659 25.2507 11.7097 24.697 12.4609 23.9951C13.1163 22.871 13.2189 21.6965 12.7676 20.4727C12.4359 19.8012 11.9331 19.2985 11.2617 18.9668C10.4053 18.7515 9.53477 18.6153 8.65723 18.5586L8.69727 18.6094C8.84094 18.7952 8.99391 18.9931 9.11816 19.1963C9.25888 19.4267 9.22793 19.5089 9.2002 19.5332C9.21752 19.53 9.24979 19.5274 9.29688 19.5283C9.30763 19.612 9.26352 19.7141 9.21875 19.7832C8.93127 19.7653 8.86219 19.8682 9.01465 20.0898C8.84386 20.2739 8.7668 20.2318 8.78516 19.9619C8.73422 20.0973 8.68277 20.0975 8.63184 19.9619C8.56614 20.0263 8.50568 20.0182 8.45312 19.9365C8.48692 19.8692 8.53928 19.8172 8.60645 19.7832C8.55953 19.7471 8.55077 19.7037 8.58105 19.6562C8.61405 19.7162 8.63965 19.716 8.65723 19.6562C8.55226 19.5308 8.45004 19.5305 8.35156 19.6562C8.22254 19.5793 8.22256 19.5009 8.35156 19.4258C8.24011 19.4023 8.119 19.3767 7.99414 19.3496C7.9869 19.3422 7.97927 19.3341 7.97363 19.3281L7.96094 19.3145C7.95487 19.308 7.94839 19.301 7.94336 19.2959C7.94033 19.2931 7.93565 19.2897 7.93262 19.2871C7.92922 19.2841 7.9242 19.2796 7.91992 19.2754L7.88086 19.2266L7.84082 19.1787C7.82096 19.1519 7.84676 19.1478 7.87695 19.1455C7.90442 19.1435 7.93703 19.1409 7.94336 19.1201C7.88621 19.0454 7.85131 18.959 7.84082 18.8643C7.89375 18.7602 7.89366 18.6579 7.84082 18.5586C7.89257 18.4125 7.98704 18.3008 8.12109 18.2266C8.15759 18.1446 8.14912 18.0667 8.0957 17.9961C8.19541 17.8515 8.21324 17.6981 8.14746 17.5371C8.18787 17.3716 8.25625 17.2172 8.35156 17.0771C8.32387 17.0306 8.28868 16.9877 8.24902 16.9502C8.2023 17.0071 8.1586 17.0076 8.12109 16.9502C8.10242 16.8509 8.06022 16.7647 7.99414 16.6943C8.38894 16.4878 8.76464 16.2401 9.11719 15.9541C10.0742 15.0395 10.7217 13.9411 11.0576 12.6611C11.1472 12.4384 11.207 12.1995 11.2363 11.9463C11.3913 11.0038 11.1863 10.1522 10.623 9.39355C10.1489 8.8343 9.65441 8.28855 9.14258 7.75977C8.914 11.1268 7.50967 13.8848 4.93066 16.0312C4.87988 15.9712 4.83632 15.9023 4.80273 15.8271C4.79028 15.9103 4.74795 15.9875 4.67578 16.0566C4.56375 16.1418 4.46864 16.1336 4.39453 16.0312C4.37879 16.0954 4.35335 16.1558 4.31836 16.21L4.41992 16.2607L4.31836 16.3115L4.21582 16.3633C4.24565 16.5332 4.21184 16.5329 4.11426 16.3633C4.04904 16.3388 3.97837 16.3292 3.90918 16.3369V16.1328C3.78747 16.1515 3.66629 16.1865 3.55176 16.2354C3.46583 16.2245 3.39616 16.1812 3.34766 16.1074C3.46705 16.0022 3.57877 15.8904 3.67969 15.7754L3.70508 15.8525L3.73047 15.9287C3.80126 15.8455 3.87956 15.7683 3.96094 15.6992C3.89432 15.6576 3.85898 15.5974 3.8584 15.5205C6.16763 13.796 7.53851 11.4977 7.96875 8.62793C8.18327 7.22233 7.81704 5.99649 6.87109 4.95215C7.0912 4.70215 7.33915 4.47951 7.61133 4.28809C7.83899 4.56672 8.08662 4.83212 8.35156 5.08008C9.58772 5.9566 10.9676 6.29664 12.4863 6.10059C12.9783 6.08171 13.4569 6.00499 13.916 5.87109C14.6127 5.75214 15.2781 5.52994 15.9072 5.20703C17.0698 4.66559 18.0663 3.89926 18.8936 2.91016C19.5146 2.04198 19.7793 1.07149 19.6855 0H20.6045ZM13.3076 19.1035C14.4371 20.3612 14.3604 20.937 14.3311 22.8555C14.3918 22.825 17.0555 21.4795 16.7188 20.4678C16.3812 19.4552 13.3717 19.1107 13.3076 19.1035ZM17.7393 21.833L18.4219 22.5146L19.4453 21.1504L17.7393 21.833ZM17.3984 21.1504L18.7627 20.127L17.0576 19.7861L17.3984 21.1504ZM17.0586 19.1035H18.7637L17.7402 17.7393L17.0586 19.1035ZM15.3545 14.6689C15.0551 16.6254 14.7835 17.5407 12.9668 18.0801C13.0311 18.1014 16.0434 19.0921 16.7188 18.0801C17.3942 17.0657 15.3905 14.7111 15.3545 14.6689ZM18.7646 16.374L19.7881 17.7393V16.0332L18.7646 16.374ZM12.625 11.2578C11.921 14.6526 11.4561 15.8521 8.87305 17.3975C8.93467 17.4141 12.6369 18.4033 13.9902 16.374C15.3442 14.3413 12.662 11.2996 12.625 11.2578ZM19.79 11.9395C19.0446 13.1177 17.9433 13.711 16.3789 13.6455C16.4172 13.6883 18.6286 16.1521 19.4492 15.3506C20.2713 14.5422 19.7946 11.9639 19.79 11.9395ZM19.4482 7.8457C17.4022 9.89159 17.0593 10.5752 13.3086 10.2344C13.3573 10.2949 16.0559 13.6337 18.084 12.6221C20.1219 11.6021 19.4535 7.87469 19.4482 7.8457ZM20.8125 3.41113C20.8096 3.43786 20.3869 7.33321 23.2012 8.86914C26.9208 10.8971 29.9705 7.22827 30.0234 7.16406C25.8304 7.02729 23.7646 6.29329 20.8125 3.41113ZM19.4482 3.41113C16.9489 6.21128 15.3083 6.81306 10.2373 6.82227C10.2853 6.86288 14.2932 10.2459 16.7197 9.21094C19.0693 8.20612 19.4463 3.43612 19.4482 3.41113Z" fill="#007CF8"/>
<path d="M3.85352 15.5205C3.85416 15.5978 3.88859 15.6576 3.95605 15.6992C3.87416 15.7686 3.79677 15.845 3.72559 15.9287C3.70865 15.8779 3.69174 15.8262 3.6748 15.7754C3.57355 15.8909 3.46265 16.0018 3.34277 16.1074C3.39173 16.182 3.46073 16.225 3.54785 16.2354C3.66308 16.1861 3.7818 16.1515 3.9043 16.1328V16.3369C3.97439 16.3289 4.04336 16.3383 4.10938 16.3633C4.20709 16.5332 4.24078 16.5333 4.21094 16.3633C4.2789 16.3293 4.34708 16.2947 4.41504 16.2607C4.3812 16.2438 4.34731 16.2269 4.31348 16.21C4.34867 16.1556 4.37386 16.0957 4.38965 16.0312C4.46403 16.1343 4.55827 16.1428 4.6709 16.0566C4.74338 15.9873 4.78539 15.9105 4.79785 15.8271C4.83162 15.9028 4.87461 15.971 4.92578 16.0312C4.65869 16.2845 4.36895 16.5146 4.05762 16.7207C4.58591 16.8002 5.11381 16.885 5.64062 16.9756C6.12606 17.0176 6.60285 17.0093 7.07031 16.9502C7.38853 16.9064 7.69502 16.8207 7.98926 16.6943C8.0556 16.7649 8.09754 16.8506 8.11621 16.9502C8.15393 17.0081 8.19708 17.008 8.24414 16.9502C8.28426 16.988 8.31878 17.031 8.34668 17.0781C8.25117 17.2183 8.18303 17.3713 8.14258 17.5371C8.20853 17.6984 8.19092 17.8523 8.09082 17.9971C8.14444 18.0679 8.15292 18.1444 8.11621 18.2266C7.98133 18.3008 7.88784 18.4119 7.83594 18.5586C7.88897 18.6581 7.88907 18.76 7.83594 18.8643C7.84649 18.9594 7.88094 19.0452 7.93848 19.1201C7.9272 19.1664 8.09114 19.2725 7.88672 19.2471C7.70905 19.0176 7.5409 18.8895 7.3252 18.7109C6.96903 18.4162 6.56006 18.2289 6.09961 18.1494C5.30089 18.0191 4.50085 17.9176 3.7002 17.8438C4.01742 18.212 4.31551 18.5948 4.59375 18.9922C5.56309 20.6838 6.0827 22.5049 6.15137 24.4551C6.23483 25.9084 6.05607 27.3207 5.61523 28.6924C6.38551 28.2095 7.14272 27.7077 7.88672 27.1865C8.62779 26.574 8.80842 26.0935 8.98535 25.4248C9.10906 25.0568 9.1893 24.7353 9.21484 24.3525C9.26589 24.0723 9.33223 24.7515 9.31641 24.9658H9.52051C9.51208 25.1703 9.52045 25.3746 9.5459 25.5781C9.56285 25.5613 9.5807 25.5441 9.59766 25.5273C9.69447 25.673 9.65182 25.7577 9.46973 25.7822C9.45834 25.8761 9.44154 25.9706 9.41895 26.0635C9.46459 26.1698 9.49834 26.2806 9.52051 26.3945C9.45192 26.6936 9.57111 26.8905 9.87793 26.9824C9.8441 26.9992 9.8102 27.0165 9.77637 27.0332C9.95215 27.2133 10.1395 27.3837 10.3379 27.5439C10.2869 27.5608 10.2355 27.5779 10.1846 27.5947C10.4008 27.6335 10.6049 27.7019 10.7969 27.7988C10.7502 27.8131 10.7166 27.8393 10.6953 27.876C9.85563 27.6626 9.05491 27.7555 8.29492 28.1562C7.68514 28.5788 7.0898 29.0216 6.50879 29.4834C9.84305 30.1808 12.4044 31.9765 14.1924 34.8701C14.4414 35.3341 14.6622 35.8114 14.8555 36.2998C15.07 35.5709 15.2749 34.839 15.4688 34.1045C15.5539 33.6044 15.5622 33.1108 15.4941 32.624C15.3574 31.7379 14.9997 30.9548 14.4219 30.2754C14.3974 30.25 14.4216 30.2403 14.4219 30.2236C14.4905 30.1966 14.5587 30.1886 14.626 30.1982C14.6887 30.3074 14.7744 30.3934 14.8818 30.4541C14.8478 30.4709 14.8133 30.4881 14.7793 30.5049C14.8823 30.6401 14.9932 30.7346 15.1113 30.7861C15.2434 30.7703 15.3879 30.7442 15.5449 30.709C15.6568 30.6054 15.708 30.4777 15.6982 30.3262C15.9139 30.6717 16.1179 31.0294 16.3105 31.3984C16.5929 30.6276 16.8397 29.8446 17.0508 29.0498C17.1795 28.5649 17.1334 28.36 17.0508 28.0283C16.9909 27.7882 16.8976 27.5672 16.7705 27.3652C16.5604 26.8661 16.2371 26.4572 15.8008 26.1396C15.2749 25.6557 14.6613 25.3323 13.9619 25.1699C14.0577 25.1495 14.1351 25.0982 14.1924 25.0166C14.3132 25.0788 14.4409 25.1216 14.5752 25.1445C14.4582 25.1945 14.475 25.2368 14.626 25.2715C14.6346 25.2258 14.6516 25.1749 14.6768 25.1191C14.7294 25.1975 14.7985 25.2228 14.8818 25.1953C14.8371 25.1147 14.7682 25.0634 14.6768 25.042C14.7035 25.0068 14.7381 24.9817 14.7793 24.9658C14.8387 25.0163 14.8985 25.0677 14.958 25.1191C15.1207 25.0916 15.2828 25.0569 15.4434 25.0166C15.3641 24.9686 15.2951 24.9088 15.2383 24.8379C15.2934 24.7634 15.2933 24.687 15.2383 24.6084C16.2331 25.0903 17.0506 25.7874 17.6895 26.7012C17.9611 25.9458 18.208 25.1801 18.4297 24.4043C18.5509 23.4985 18.168 22.9278 17.2812 22.6934C17.0949 22.6679 16.9076 22.6596 16.7197 22.668C16.8817 22.6377 17.0431 22.5864 17.2041 22.5146C17.2836 22.5416 17.3601 22.5762 17.4336 22.6172C17.4946 22.5995 17.4945 22.5734 17.4336 22.54C17.6112 22.5843 17.7735 22.5423 17.9189 22.4131C18.0029 22.497 18.0887 22.5819 18.1748 22.668C18.3402 22.6073 18.5017 22.6241 18.6592 22.7188C18.709 22.6944 18.752 22.6608 18.7871 22.6172C18.8062 22.6638 18.8314 22.7069 18.8633 22.7451C18.6481 22.9497 18.699 23.0598 19.0166 23.0762C19.0959 23.2409 19.2152 23.378 19.374 23.4854C19.429 23.3846 19.4121 23.2904 19.3232 23.2041C19.3486 23.1956 19.3741 23.1872 19.3994 23.1787C19.5353 23.193 19.5781 23.2525 19.5273 23.3574C19.7652 23.4198 19.7482 23.5047 19.4766 23.6123C19.6465 23.674 19.7744 23.6319 19.8594 23.4854C20.0245 23.5635 20.1776 23.5459 20.3184 23.4336C20.3353 23.4676 20.3532 23.5022 20.3701 23.5361C20.3846 23.4143 20.4104 22.9209 20.498 22.9746C20.3959 22.6683 20.2943 22.668 20.6006 22.668V24.0977C20.1922 24.0977 19.7834 24.021 19.5527 24.5059C19.1915 25.4248 18.9018 26.3614 18.6846 27.3145C18.8337 27.2016 18.9958 27.1072 19.1699 27.0332C19.9446 26.7366 20.7445 26.6342 21.5693 26.7266C22.1466 26.7919 22.6829 26.9707 23.1777 27.2627C23.012 26.6895 22.7742 26.077 22.5146 25.5273H23.7148C23.9045 25.9069 24.0649 26.349 24.1982 26.752C24.4146 26.3402 24.6626 25.8984 24.9395 25.5273H26.4707C26.3696 25.6293 26.2924 25.7055 26.1641 25.833C25.24 26.6442 24.8406 27.6657 24.9648 28.8965C25.1964 29.727 25.4683 30.5447 25.7812 31.3477C26.4595 29.8269 27.4894 28.6101 28.8701 27.6973C29.3573 27.4329 29.8677 27.228 30.4014 27.084C29.9996 26.7416 29.5858 26.3951 29.2031 26.0635C29.0245 25.9086 28.7707 25.6978 28.5645 25.5273H30.1465C30.243 25.5886 30.3372 25.6565 30.4277 25.7314V25.5273H31.168C31.2094 25.6518 31.2598 25.8223 31.3203 25.9355C31.5133 26.4613 31.8374 26.8953 32.291 27.2373C32.9121 27.7223 33.5332 28.2074 34.1543 28.6924C34.0158 28.1396 33.8966 27.5779 33.7969 27.0078C33.7375 26.5669 33.6946 26.1241 33.6689 25.6807V25.5273H34.6904C34.7331 26.6334 34.9454 27.7055 35.3281 28.7432C35.8116 29.7024 36.5533 30.5022 37.4482 31.0918C37.4887 31.1185 37.5206 31.14 37.5244 31.1426C37.3979 31.3263 37.1932 31.5655 37.0645 31.7559C37.0104 31.8272 36.9885 31.8835 36.9375 31.96C36.912 31.9089 34.3707 30.9845 33.0059 31.4238C31.5913 32.0646 30.4508 33.0261 29.585 34.3086C28.9512 35.1279 28.5172 36.047 28.2832 37.0654C28.2061 37.5221 28.24 37.9816 28.2832 38.4434C28.3566 38.8527 28.4086 39.2616 28.4883 39.6689C28.197 39.7435 27.8057 39.8796 27.5186 39.9756C27.4931 39.8736 27.5067 39.9237 27.4912 39.873C27.2458 39.0686 26.8035 38.4045 26.1641 37.8818C25.8466 37.5695 25.4888 37.3057 25.0918 37.0908C23.6312 36.3854 22.0996 36.1041 20.4971 36.248C18.5599 36.3058 16.8475 36.8865 15.5703 38.3926C15.224 38.8638 14.9183 39.4512 14.7031 40.001C14.6779 39.9942 14.6692 39.9858 14.626 39.9756C14.3661 39.9143 14.0094 39.8116 13.7588 39.7197C13.7842 39.6689 13.7851 39.6689 13.8096 39.6182C14.1474 38.5768 14.1473 37.5381 13.8096 36.5039C13.2504 35.1016 12.3993 33.9013 11.2568 32.9043C10.0312 31.7806 8.60117 31.0324 6.96777 30.6582C5.52631 30.402 4.22463 30.7168 3.0625 31.6025C2.85725 31.3719 2.66156 31.1332 2.47559 30.8877C3.44871 30.2802 4.15462 29.4459 4.59375 28.3857C5.38129 26.0614 5.37291 23.7465 4.56836 21.4424C4.48135 21.0787 4.34519 20.7384 4.16016 20.4219C3.41157 18.5664 1.97419 17.435 0 17.0781C0.0254457 17.0018 0.0254974 16.9754 0.0507812 16.8994C0.132334 16.6973 0.20872 16.4923 0.280273 16.2861C0.305656 16.2126 0.330219 16.1619 0.332031 16.1582C0.337595 16.16 0.566922 16.2345 0.585938 16.2354C0.828022 16.3118 1.08348 16.3453 1.35156 16.3369C2.26752 16.3095 3.10186 16.0376 3.85352 15.5205ZM21.1504 31.3848C17.0615 31.3848 16.0355 36.1493 16.0332 36.1602C20.5549 34.2987 22.7551 34.4549 26.2676 36.1602C26.264 36.1434 25.2368 31.3848 21.1504 31.3848ZM34.4561 30.0195C34.4368 29.9982 31.3745 26.6167 28.3154 29.3369C25.2678 32.047 27.6006 35.7673 27.6328 35.8184C29.3755 31.9721 30.2379 30.7234 34.4561 30.0195ZM21.1504 27.6318C18.4213 27.6318 17.3975 31.7256 17.3975 31.7256C20.2128 30.1813 21.8659 30.2543 24.9023 31.7256C24.9023 31.7256 23.8792 27.6322 21.1504 27.6318Z" fill="#007CF8"/>
<path fill-rule="evenodd" clip-rule="evenodd" d="M9.06237 19.1962C9.13308 19.251 9.19261 19.3191 9.24106 19.4004C10.0476 20.8382 10.3794 22.3698 10.2366 23.9952C10.2451 23.5695 10.2366 23.144 10.2111 22.7189C10.1941 22.804 10.177 22.8891 10.16 22.9742C10.143 22.821 10.126 22.6678 10.109 22.5147C10.092 22.6338 10.0749 22.7529 10.0579 22.8721C10.0435 22.7065 10.0009 22.6895 9.93029 22.821C9.86223 22.6848 9.79412 22.6848 9.72607 22.821C9.67292 22.6938 9.63039 22.6938 9.59843 22.821C9.56939 22.6239 9.52686 22.6239 9.4708 22.821C9.41342 22.5544 9.37084 22.5544 9.34317 22.821C9.29798 22.6448 9.24065 22.5147 9.21643 22.3105C9.14074 21.6723 9.11595 21.6533 9.03774 21.3404C8.9607 21.0487 8.85012 20.8274 8.70589 20.5746C8.62841 20.4388 8.57371 20.327 8.50167 20.2172C8.32186 19.9251 8.1678 19.6358 7.99023 19.3493C8.11618 19.3767 8.23529 19.4022 8.34761 19.4259C8.21671 19.5015 8.21671 19.5781 8.34761 19.6557C8.44645 19.5291 8.54856 19.5291 8.65394 19.6557C8.63627 19.7167 8.61074 19.7167 8.57736 19.6557C8.54585 19.7041 8.55433 19.7466 8.60288 19.7833C8.53483 19.8173 8.48377 19.8684 8.44972 19.9364C8.50261 20.019 8.56219 20.0275 8.62841 19.962C8.67946 20.0981 8.73052 20.0981 8.78157 19.962C8.76314 20.2326 8.83972 20.2751 9.01131 20.0896C8.85754 19.8667 8.92559 19.7646 9.21553 19.7833C9.26046 19.7141 9.27751 19.6375 9.26658 19.5535C8.96884 19.5474 8.90073 19.4283 9.06237 19.1962Z" fill="#007CF8"/>
</svg>
